<svg width="20" height="20" viewBox="0 0 20 20" fill="none" xmlns="http://www.w3.org/2000/svg">
<path d="M19.231 0.271253C19.0451 0.150904 18.8373 0.0682676 18.6194 0.0280644C18.4016 -0.0121387 18.1779 -0.00912094 17.9612 0.0369454C17.7445 0.0830117 17.539 0.171224 17.3565 0.296543C17.174 0.421862 17.018 0.581832 16.8975 0.767314L7.44319 15.3074L2.83247 11.0539C2.6698 10.9038 2.4791 10.7871 2.27125 10.7106C2.0634 10.6341 1.84247 10.5991 1.62109 10.6078C1.17398 10.6253 0.752146 10.8192 0.448376 11.147C0.144605 11.4748 -0.0162152 11.9096 0.0012935 12.3557C0.0188022 12.8018 0.213206 13.2227 0.541737 13.5257L6.59563 19.1104C6.59563 19.1104 6.76941 19.2596 6.84984 19.3118C7.03571 19.4323 7.24355 19.515 7.46147 19.5552C7.6794 19.5955 7.90313 19.5925 8.1199 19.5464C8.33666 19.5003 8.5422 19.4121 8.72476 19.2867C8.90733 19.1614 9.06334 19.0013 9.18388 18.8158L19.7281 2.59949C19.8488 2.41406 19.9316 2.20673 19.9719 1.98935C20.0122 1.77198 20.0091 1.54881 19.963 1.3326C19.9168 1.11639 19.8284 0.911377 19.7028 0.729267C19.5772 0.547158 19.4169 0.391523 19.231 0.271253Z" fill="#31373D"/>
</svg>
