<svg width="24" height="18" viewBox="0 0 30 24" fill="none" xmlns="http://www.w3.org/2000/svg">
<path d="M15.0005 1.50075C18.1859 1.50075 21.5646 3.64682 21.5646 5.24887V8.9985C21.5646 10.4422 20.8142 13.2036 18.8022 14.471C18.2891 14.7936 18.0227 15.3077 18.0996 15.8269C18.1765 16.3462 18.5855 16.7956 19.1793 17.014L27.3426 20.1108C27.4064 20.1341 28.1249 20.2309 28.1249 21.0338L28.1259 22.4985L1.87693 22.5V20.9775C1.87693 20.3809 2.43598 20.1933 2.66016 20.1116L10.8977 17.0013C11.4886 16.7844 11.8966 16.3372 11.9754 15.8209C12.0542 15.3047 11.7944 14.7929 11.2879 14.468C9.33871 13.2164 8.43073 10.4647 8.43073 9V5.25038C8.43167 3.68284 11.8432 1.50225 15.0005 1.50225V1.50075ZM15.0005 0C10.8583 0 6.55473 2.76588 6.55473 5.24962V8.99925C6.55473 10.6381 7.48992 13.9525 10.1126 15.6378L1.87412 18.7481C1.87412 18.7481 0 19.416 0 20.2481V22.5C0 23.3292 0.839508 24 1.87412 24H28.1249C29.1614 24 30 23.3284 30 22.5V20.2481C30 19.3664 28.1249 18.7481 28.1249 18.7481L19.9615 15.6513C22.5598 14.0155 23.4396 10.8009 23.4396 8.99925V5.24962C23.4396 2.76588 19.1417 0.000750375 14.9995 0.000750375L15.0005 0Z" fill="white"/>
</svg>
